<svg width="40" height="45" viewBox="0 0 40 45" fill="none" xmlns="http://www.w3.org/2000/svg">
<path d="M25.8109 29.2997C25.8975 29.1587 25.9841 29.0203 26.0707 28.8767C29.9666 22.4267 31.9271 16.7844 31.899 12.1085C31.8817 8.89153 30.5918 5.81216 28.311 3.54329C26.0303 1.27443 22.9443 0.00054521 19.7272 1.74968e-07C16.5102 -0.00054486 13.4237 1.27229 11.1422 3.54038C8.86075 5.80847 7.56977 8.88741 7.55137 12.1044C7.52287 16.7844 9.48375 22.4274 13.3796 28.8767C13.4662 29.0203 13.5529 29.1587 13.6395 29.2997C5.4375 30.3133 0 33.2447 0 36.725C0 41.0945 8.6625 44.5172 19.725 44.5172C30.7875 44.5172 39.45 41.0945 39.45 36.725C39.45 33.2447 34.0125 30.3133 25.8109 29.2997ZM8.86387 12.1085C8.85574 10.6768 9.13074 9.25765 9.67305 7.93262C10.2154 6.60758 11.0143 5.40284 12.0239 4.38769C13.0335 3.37253 14.2338 2.56699 15.5559 2.01741C16.8779 1.46782 18.2955 1.18503 19.7273 1.1853C21.159 1.18558 22.5765 1.4689 23.8983 2.01899C25.2202 2.56908 26.4202 3.37507 27.4294 4.39061C28.4386 5.40615 29.2371 6.6112 29.7789 7.93644C30.3207 9.26168 30.5952 10.681 30.5865 12.1127C30.6427 21.4344 21.9277 32.9315 19.725 35.6885C17.5222 32.9315 8.80687 21.434 8.86387 12.1085ZM19.725 43.2047C8.71087 43.2047 1.3125 39.854 1.3125 36.725C1.3125 33.95 6.79837 31.3682 14.4127 30.5308C15.8854 32.8302 17.4923 35.0408 19.2251 37.151C19.2867 37.2236 19.3632 37.2819 19.4496 37.3218C19.5359 37.3618 19.6299 37.3825 19.725 37.3825C19.8201 37.3825 19.9141 37.3618 20.0004 37.3218C20.0868 37.2819 20.1633 37.2236 20.2249 37.151C21.9578 35.0408 23.5648 32.8302 25.0376 30.5308C32.6501 31.3682 38.1379 33.9485 38.1379 36.725C38.1375 39.854 30.7391 43.2047 19.725 43.2047Z" fill="black"/>
<path d="M14.5902 38.9502C11.678 38.5775 9.34022 37.9212 8.00972 37.1033C7.93629 37.0564 7.85425 37.0245 7.76839 37.0097C7.68253 36.9948 7.59456 36.9971 7.50961 37.0166C7.42467 37.0361 7.34446 37.0723 7.27365 37.1231C7.20285 37.1739 7.14287 37.2383 7.09723 37.3125C7.05158 37.3867 7.02118 37.4693 7.00779 37.5554C6.9944 37.6416 6.9983 37.7295 7.01926 37.8141C7.04021 37.8986 7.07781 37.9782 7.12984 38.0481C7.18188 38.118 7.24732 38.1769 7.32234 38.2212C8.80847 39.1347 11.3307 39.8562 14.4237 40.2518C14.4516 40.2554 14.4796 40.2572 14.5077 40.2571C14.6741 40.2563 14.8339 40.1923 14.9549 40.0782C15.0759 39.964 15.149 39.8082 15.1595 39.6422C15.17 39.4762 15.117 39.3124 15.0113 39.1839C14.9057 39.0555 14.7551 38.9719 14.5902 38.9502Z" fill="black"/>
<path d="M20.4776 40.0184C19.563 40.0394 18.6105 40.0346 17.6809 40.0004C17.5947 39.9973 17.5087 40.0111 17.4279 40.0411C17.3471 40.0712 17.2729 40.1169 17.2098 40.1756C17.1466 40.2342 17.0956 40.3048 17.0597 40.3832C17.0237 40.4616 17.0036 40.5463 17.0004 40.6325C16.9973 40.7187 17.0111 40.8046 17.0411 40.8855C17.0712 40.9663 17.1169 41.0404 17.1756 41.1036C17.2342 41.1668 17.3048 41.2178 17.3832 41.2537C17.4616 41.2896 17.5463 41.3098 17.6325 41.3129C18.2093 41.3339 18.795 41.3448 19.3755 41.3448C19.7573 41.3448 20.1349 41.3403 20.5084 41.3313C20.6824 41.3273 20.8477 41.2543 20.9678 41.1284C21.088 41.0025 21.1533 40.8341 21.1493 40.6601C21.1484 40.5735 21.1302 40.488 21.0957 40.4086C21.0613 40.3292 21.0113 40.2575 20.9487 40.1977C20.8861 40.1379 20.8122 40.0912 20.7313 40.0605C20.6504 40.0297 20.5641 40.0154 20.4776 40.0184Z" fill="black"/>
<path d="M25.0835 12.541C25.0834 11.445 24.7582 10.3736 24.1492 9.46234C23.5401 8.55109 22.6745 7.84091 21.6619 7.42159C20.6492 7.00228 19.535 6.89266 18.46 7.1066C17.3851 7.32055 16.3977 7.84845 15.6227 8.62354C14.8478 9.39864 14.3201 10.3861 14.1064 11.4611C13.8927 12.5361 14.0025 13.6503 14.422 14.6629C14.8415 15.6755 15.5519 16.5409 16.4633 17.1498C17.3746 17.7586 18.4461 18.0836 19.5421 18.0835C21.0114 18.0817 22.42 17.4972 23.4589 16.4581C24.4977 15.419 25.082 14.0103 25.0835 12.541ZM15.3129 12.541C15.313 11.7046 15.5612 10.887 16.026 10.1916C16.4908 9.49616 17.1514 8.95421 17.9242 8.63422C18.697 8.31423 19.5473 8.23059 20.3677 8.39386C21.188 8.55713 21.9415 8.95998 22.5329 9.55149C23.1243 10.143 23.527 10.8966 23.6902 11.7169C23.8533 12.5373 23.7695 13.3876 23.4494 14.1604C23.1292 14.9331 22.5872 15.5936 21.8917 16.0583C21.1962 16.523 20.3786 16.771 19.5421 16.771C18.4207 16.7698 17.3455 16.3237 16.5526 15.5307C15.7597 14.7377 15.3139 13.6624 15.3129 12.541Z" fill="black"/>
</svg>
